<?xml version="1.0" standalone="no"?>
<!DOCTYPE svg PUBLIC "-//W3C//DTD SVG 20010904//EN"
 "http://www.w3.org/TR/2001/REC-SVG-20010904/DTD/svg10.dtd">
<svg version="1.0" xmlns="http://www.w3.org/2000/svg"
 width="110.000000pt" height="110.000000pt" viewBox="0 0 110.000000 110.000000"
 preserveAspectRatio="xMidYMid meet">
<metadata>
Created by potrace 1.14, written by Peter Selinger 2001-2017
</metadata>
<g transform="translate(0.000000,110.000000) scale(0.100000,-0.100000)"
fill="#000000" stroke="none">
<path d="M433 1055 c-193 -52 -335 -190 -384 -374 -17 -63 -20 -202 -6 -256
48 -184 183 -328 357 -382 58 -17 216 -24 279 -11 72 14 184 80 246 142 271
276 174 716 -190 864 -75 30 -222 38 -302 17z m240 -20 c166 -43 306 -170 358
-322 20 -58 20 -62 24 -158 4 -76 0 -101 -21 -164 -67 -200 -232 -331 -434
-347 -249 -20 -471 139 -534 381 -19 74 -15 202 9 276 80 244 354 398 598 334z"/>
<path d="M324 901 c-69 -42 -82 -95 -34 -142 27 -27 27 -30 7 -23 -47 15 -64
23 -81 39 -33 34 -61 -8 -36 -55 5 -10 30 -26 55 -35 44 -17 45 -18 25 -35
-47 -40 -62 -127 -34 -183 32 -61 74 -85 161 -94 64 -6 113 9 151 48 l29 29
13 -24 c34 -64 204 -71 269 -13 58 54 77 158 41 231 -24 50 -69 80 -152 103
-66 18 -89 36 -80 63 7 21 32 40 54 40 16 0 17 -3 7 -21 -27 -52 53 -98 118
-67 56 27 37 109 -33 139 -103 46 -211 1 -221 -91 -7 -63 18 -92 104 -120 94
-30 118 -44 136 -81 32 -66 2 -135 -66 -156 -83 -25 -143 18 -156 112 -12 90
-63 104 -73 20 -8 -68 -32 -110 -72 -129 -67 -32 -137 -10 -162 51 -12 28 -12
38 0 68 18 41 57 67 146 95 36 11 72 26 81 33 52 41 54 133 3 184 -37 37 -149
45 -200 14z m146 -71 c44 -44 11 -86 -76 -95 -27 -3 -40 -1 -29 3 63 23 79 60
39 91 l-27 21 37 0 c23 0 43 -7 56 -20z"/>
<path d="M890 392 c0 -7 -3 -11 -7 -9 -5 1 -9 -1 -10 -5 -7 -19 -2 -26 15 -23
11 1 16 9 14 21 -5 22 -12 32 -12 16z"/>
<path d="M248 353 c-29 -7 -28 -32 2 -67 21 -23 28 -40 23 -52 -6 -18 -6 -18
14 -1 18 16 22 16 33 2 17 -21 28 -11 22 20 -3 16 -10 24 -18 21 -18 -7 -78
50 -68 65 5 9 10 5 16 -10 7 -21 28 -21 28 -1 0 13 -32 27 -52 23z"/>
<path d="M440 352 c-24 -7 -40 -33 -40 -64 0 -49 66 -84 92 -49 10 13 10 14
-1 4 -14 -12 -41 -7 -53 11 -13 19 -9 73 6 85 18 15 29 0 19 -26 -6 -16 -5
-16 10 -4 9 7 17 17 17 22 0 13 -33 27 -50 21z"/>
<path d="M686 351 c-4 -6 -6 -28 -4 -50 1 -22 -2 -44 -6 -48 -4 -5 -7 -1 -6 7
5 34 -1 60 -13 60 -9 0 -12 -13 -11 -40 1 -29 -3 -40 -13 -40 -8 0 -13 8 -12
18 4 39 -2 62 -15 62 -16 0 -19 -53 -5 -82 6 -10 5 -19 -1 -23 -12 -7 -4 -25
11 -25 5 0 9 9 9 20 0 11 7 20 15 20 18 0 19 -12 3 -28 -9 -9 -8 -12 5 -12 9
0 19 11 23 25 5 19 11 24 28 19 20 -5 21 -2 18 53 -4 58 -14 84 -26 64z"/>
<path d="M739 309 c-11 -11 -18 -27 -15 -36 3 -8 6 -20 6 -28 0 -17 33 -25 54
-13 23 13 21 70 -4 86 -17 10 -23 9 -41 -9z m39 -52 c-2 -12 -7 -22 -13 -22
-12 0 -19 41 -10 63 6 16 7 16 16 -1 6 -10 9 -28 7 -40z"/>
<path d="M320 305 c0 -8 7 -15 15 -15 9 0 12 6 9 15 -4 8 -10 15 -15 15 -5 0
-9 -7 -9 -15z"/>
<path d="M357 293 c9 -60 14 -74 24 -68 7 5 7 62 0 93 -1 1 -7 2 -15 2 -9 0
-12 -9 -9 -27z"/>
<path d="M511 298 c-12 -32 -2 -58 26 -71 18 -8 27 -7 36 2 9 10 8 11 -5 6
-21 -8 -42 36 -33 66 9 27 -14 24 -24 -3z"/>
<path d="M553 286 c-1 -27 2 -34 13 -29 9 3 14 16 12 31 -5 38 -23 37 -25 -2z"/>
<path d="M819 316 c-6 -6 -4 -65 3 -79 11 -21 30 -13 21 8 -7 20 5 65 17 65 5
0 9 -15 8 -33 -1 -36 9 -60 21 -52 7 3 7 45 2 87 -1 6 -66 9 -72 4z"/>
<path d="M222 271 c-15 -9 -6 -37 13 -44 8 -4 13 3 13 19 0 28 -9 36 -26 25z"/>
<path d="M373 163 c-7 -2 -13 -9 -13 -14 0 -6 4 -7 10 -4 5 3 7 0 4 -8 -3 -8
-1 -18 5 -22 7 -4 11 4 11 20 0 24 2 25 15 11 8 -8 15 -19 15 -25 0 -14 17
-14 26 0 5 8 9 8 14 -1 5 -7 9 -2 12 14 6 32 -7 34 -23 4 -10 -18 -13 -20 -17
-8 -5 15 -32 40 -42 39 -3 0 -11 -3 -17 -6z"/>
<path d="M505 160 c-3 -5 -1 -10 5 -10 7 0 10 -7 7 -15 -4 -8 -2 -17 3 -20 6
-4 10 7 10 24 0 30 -13 41 -25 21z"/>
<path d="M736 148 c2 -13 2 -17 -2 -10 -3 6 -10 12 -15 12 -6 0 -5 -8 1 -20
12 -23 40 -16 35 8 -2 9 -4 20 -4 25 -1 4 -5 7 -10 7 -5 0 -7 -10 -5 -22z"/>
<path d="M551 140 c-1 -24 3 -26 39 -26 32 0 40 3 40 18 0 13 -8 18 -31 18
-17 0 -28 -4 -24 -10 3 -5 2 -10 -4 -10 -5 0 -12 8 -14 18 -3 11 -5 8 -6 -8z"/>
<path d="M660 138 c0 -17 6 -24 20 -24 13 0 20 7 20 19 0 17 -2 18 -17 6 -10
-8 -14 -9 -10 -2 4 6 3 14 -3 18 -6 3 -10 -4 -10 -17z"/>
<path d="M642 130 c0 -14 2 -19 5 -12 2 6 2 18 0 25 -3 6 -5 1 -5 -13z"/>
</g>
</svg>
